<?xml version="1.0" standalone="no"?>
<!DOCTYPE svg PUBLIC "-//W3C//DTD SVG 20010904//EN"
 "http://www.w3.org/TR/2001/REC-SVG-20010904/DTD/svg10.dtd">
<svg version="1.0" xmlns="http://www.w3.org/2000/svg"
 width="534.000000pt" height="1491.000000pt" viewBox="0 0 534.000000 1491.000000"
 preserveAspectRatio="xMidYMid meet">

<g transform="translate(0.000000,1491.000000) scale(0.100000,-0.100000)"
fill="#000000" stroke="none">
<path d="M4555 14841 c-52 -23 -217 -186 -245 -241 -24 -47 -39 -155 -45 -340
-6 -135 -12 -247 -21 -345 -3 -38 -7 -162 -8 -275 -1 -113 -9 -272 -18 -355
-18 -164 -23 -689 -8 -760 5 -22 10 -119 10 -215 1 -96 8 -265 16 -375 12
-180 29 -624 26 -700 0 -16 6 -61 13 -100 8 -38 16 -158 20 -265 3 -107 10
-244 15 -305 8 -89 19 -298 22 -435 1 -14 5 -83 9 -155 13 -209 34 -794 35
-1000 1 -104 4 -210 8 -235 3 -25 6 -139 6 -255 0 -115 4 -237 10 -270 6 -33
9 -109 8 -170 -2 -162 -2 -216 5 -360 7 -132 23 -533 25 -615 1 -25 3 -205 5
-400 2 -247 8 -371 17 -409 10 -45 10 -72 0 -151 -8 -57 -10 -118 -5 -146 4
-27 6 -98 4 -159 -3 -156 -3 -154 5 -330 23 -456 28 -560 31 -675 1 -69 -1
-161 -6 -205 -6 -57 -5 -104 5 -165 8 -55 11 -131 8 -215 -3 -71 -4 -139 -3
-150 5 -61 7 -808 2 -852 l-6 -52 -74 33 c-41 19 -95 49 -120 68 -96 69 -128
72 -195 19 l-37 -29 -53 18 c-46 17 -146 42 -313 80 -44 10 -231 34 -390 49
-72 7 -418 7 -553 -1 -101 -5 -377 -40 -455 -58 -22 -4 -67 -14 -100 -21 -33
-6 -85 -18 -115 -26 -73 -20 -115 -30 -171 -42 -25 -5 -61 -16 -80 -24 -56
-23 -101 -38 -162 -53 -32 -8 -81 -25 -110 -38 -29 -13 -86 -38 -127 -56 -103
-44 -201 -89 -223 -101 -10 -5 -41 -22 -70 -38 -46 -25 -141 -79 -174 -99 -45
-27 -224 -152 -253 -177 -19 -17 -47 -39 -62 -48 -69 -43 -297 -281 -368 -382
-104 -151 -185 -305 -217 -419 -44 -153 -47 -173 -47 -326 -1 -163 7 -218 51
-350 86 -259 297 -506 588 -690 247 -155 582 -276 950 -341 98 -17 392 -48
515 -53 222 -9 626 20 815 59 39 8 106 21 150 30 44 9 114 25 155 36 41 11 91
24 110 29 119 30 226 63 275 85 17 7 55 21 85 31 30 9 73 25 95 34 22 10 81
35 130 55 86 36 181 82 290 142 235 130 523 358 697 553 65 73 80 92 151 195
85 123 158 283 207 454 26 90 30 120 30 225 0 67 -5 150 -10 186 -9 57 -16
147 -36 430 -8 107 -12 198 -19 420 -3 107 -10 206 -14 220 -5 14 -6 50 -3 80
3 30 -1 117 -7 194 -11 122 -19 303 -23 496 -1 30 -5 123 -10 205 -10 178 -21
517 -19 595 1 30 -3 132 -9 225 -5 94 -12 231 -15 305 -5 133 -10 248 -21 425
-2 50 -7 151 -9 225 -9 273 -15 417 -20 485 -4 39 -8 176 -10 305 -1 129 -8
314 -14 410 -7 96 -12 207 -12 245 -1 39 -5 135 -10 215 -8 137 -16 367 -24
690 -2 80 -13 309 -24 510 -11 201 -22 457 -26 570 -3 113 -10 266 -15 341 -6
75 -12 269 -15 430 -3 162 -7 335 -10 384 -3 50 -12 275 -20 500 -24 667 -34
908 -40 945 -3 19 -8 123 -11 230 -4 107 -7 213 -9 235 -1 22 -6 121 -9 220
-4 99 -11 234 -16 300 -5 66 -12 185 -15 265 -15 383 -55 935 -84 1135 -24
173 -34 265 -35 328 -1 64 -3 71 -34 98 -37 34 -61 36 -117 10z"/>
</g>
</svg>
