<?xml version="1.0" standalone="no"?>
<!DOCTYPE svg PUBLIC "-//W3C//DTD SVG 20010904//EN"
 "http://www.w3.org/TR/2001/REC-SVG-20010904/DTD/svg10.dtd">
<svg version="1.0" xmlns="http://www.w3.org/2000/svg"
 width="346.000000pt" height="156.000000pt" viewBox="0 0 346.000000 156.000000"
 preserveAspectRatio="xMidYMid meet">

<g transform="translate(0.000000,156.000000) scale(0.100000,-0.100000)"
fill="#000000" stroke="none">
<path d="M432 1505 c-51 -43 -85 -135 -90 -247 l-5 -98 -153 0 c-96 0 -154 -4
-154 -10 0 -6 58 -10 154 -10 131 0 155 -2 160 -16 15 -38 4 -60 -48 -106
l-55 -48 -105 0 c-64 0 -106 -4 -106 -10 0 -6 38 -10 95 -10 52 0 95 -3 95 -6
0 -3 -11 -20 -26 -36 -14 -17 -36 -53 -50 -79 -24 -48 -26 -49 -69 -49 -25 0
-45 -4 -45 -10 0 -5 18 -10 40 -10 l40 0 0 -69 c0 -38 3 -76 6 -85 5 -13 -2
-16 -40 -16 -25 0 -46 -4 -46 -10 0 -5 22 -10 49 -10 45 0 49 -2 62 -32 7 -18
37 -57 66 -85 l54 -53 -116 0 c-70 0 -115 -4 -115 -10 0 -6 78 -10 215 -10
118 0 215 -3 215 -7 0 -5 5 -37 10 -72 22 -134 9 -196 -50 -226 -34 -17 -83
-20 -111 -5 -24 13 -25 30 -1 30 41 1 79 61 63 103 -32 83 -136 76 -162 -12
-10 -33 -9 -44 7 -77 27 -53 63 -77 126 -81 65 -5 112 17 146 67 23 33 24 41
18 130 -3 52 -9 107 -12 123 l-6 27 1471 0 c974 0 1471 3 1471 10 0 7 -492 10
-1455 10 -800 0 -1455 4 -1455 8 0 4 13 15 29 25 32 19 66 67 76 110 l7 27
1399 0 c923 0 1399 3 1399 10 0 7 -477 11 -1397 12 l-1398 3 -5 41 c-3 22 -16
57 -28 78 -12 20 -22 39 -22 42 0 2 641 4 1425 4 937 0 1425 3 1425 10 0 6
-498 11 -1448 13 -1181 3 -1457 6 -1504 17 l-56 14 -7 45 c-3 26 -9 56 -12 69
l-5 22 1516 0 c1004 0 1516 3 1516 10 0 7 -509 10 -1506 10 l-1506 0 31 35
c17 20 42 58 56 85 l25 50 1450 0 c960 0 1450 3 1450 10 0 7 -488 10 -1445 10
l-1446 0 8 38 c20 92 -10 265 -54 315 -21 22 -26 22 -61 -8z m72 -121 c30 -29
16 -111 -31 -186 -21 -34 -28 -38 -65 -38 l-41 0 7 55 c8 74 32 130 68 160 35
29 41 30 62 9z m-99 -264 c-14 -15 -21 -17 -26 -8 -11 17 -2 28 23 28 21 0 21
-1 3 -20z m-20 -257 c6 -48 4 -59 -11 -70 -20 -14 -144 -18 -144 -5 0 12 126
132 138 132 5 0 13 -26 17 -57z m-90 -146 c-16 -28 -25 -59 -25 -85 l0 -42
-50 0 -50 0 0 43 c0 23 9 61 20 85 l19 42 56 0 56 0 -26 -43z m119 -39 c3 -13
6 -38 6 -55 0 -33 0 -33 -50 -33 -44 0 -50 2 -50 21 0 21 59 89 78 89 5 0 12
-10 16 -22z m87 7 c27 -14 69 -68 69 -87 0 -5 -25 -8 -55 -8 -60 0 -60 0 -69
68 -7 48 3 53 55 27z m-207 -144 c16 -30 74 -73 88 -65 5 3 -8 20 -27 38 -48
46 -45 56 19 56 61 0 59 3 71 -102 l7 -58 -56 0 c-89 0 -165 42 -202 112 -22
42 -18 48 36 48 44 0 51 -3 64 -29z m276 8 c0 -44 -51 -119 -81 -119 -4 0 -10
21 -14 48 -3 26 -9 57 -12 70 -5 21 -2 22 51 22 50 0 56 -2 56 -21z"/>
</g>
</svg>
